# xmcd CD database file
#
# Track frame offsets:
#	151
#	16158
#	39273
#	63686
#	78891
#	104608
#	127505
#	151004
#	176577
#	207594
#	226247
#	254868
#	277411
#	301004
#	312595
#
# Disc length: 4373 seconds
#
# Revision: 0
# Processed by: cddbd v1.4PL0 Copyright (c) Steve Scherf et al.
# Submitted via: NeoAudio 9.9.9
#
DISCID=c811130f
DTITLE=Lo Mejor De - Salsa Cumbiando Vol.2
DYEAR=1900
DGENRE=Salsa
TTITLE0=Latin Brothers-Dime Que Paso
TTITLE1=Galy Galeano-Quien Entiende Este Amor
TTITLE2=Tamba Fuego-Mascaras
TTITLE3=Orq. Camaguey-La Chica Que Nacio En Japon
TTITLE4=Loui Ramirez Y Ray De La Paz-Mentirosa
TTITLE5=Jerry Rivera-Amores Como El Nuestro
TTITLE6=Eddie Santiago- Que Locura Enamorarme De Ti
TTITLE7=Ravlin-Rebelion
TTITLE8=Orq. Inmensidad-Lagrimas
TTITLE9=La Trombada De chick-Hoy Voy A Tomar
TTITLE10=Frankie Ruiz-Quiero Morir En Tu Piel
TTITLE11=Fiebre Amarilla-Enamorado De Ti
TTITLE12=Willie Colon-Gitana
TTITLE13=Chico Navarro-Los Castañuelas
TTITLE14=Combo Millonario-C. Campeona
EXTD=
EXTT0=
EXTT1=
EXTT2=
EXTT3=
EXTT4=
EXTT5=
EXTT6=
EXTT7=
EXTT8=
EXTT9=
EXTT10=
EXTT11=
EXTT12=
EXTT13=
EXTT14=
PLAYORDER=
